<svg width="1024" height="1024" viewBox="0 0 1024 1024" fill="none" xmlns="http://www.w3.org/2000/svg">
<g clip-path="url(#clip0_301_34)">
<rect width="1024" height="1024" fill="white"/>
<path d="M643.059 408.891H713.472V728.008H643.059V408.891Z" fill="white"/>
<path d="M773 429.902V706.996C773 712.566 770.787 717.907 766.851 721.847C762.911 725.783 757.57 728 752 728H732.783V408.896H752C757.569 408.896 762.91 411.109 766.851 415.049C770.787 418.989 773 424.33 773 429.9V429.902Z" fill="white"/>
<path d="M595.753 333.569H567.404V262.624C567.39 252.119 563.211 242.049 555.783 234.621C548.355 227.193 538.284 223.014 527.78 223H358.624C348.119 223.014 338.049 227.193 330.621 234.621C323.193 242.048 319.014 252.119 319 262.624C319 264.263 320.331 265.593 321.974 265.593H392.309V333.584H363.33C352.354 333.584 341.831 337.945 334.072 345.705C326.312 353.464 321.951 363.992 321.951 374.963V760.581C321.947 771.557 326.307 782.085 334.067 789.844C341.826 797.608 352.355 801.964 363.33 801.964H595.724C606.705 801.969 617.237 797.608 625.001 789.844C632.765 782.08 637.127 771.547 637.122 760.566V374.949C637.122 363.977 632.761 353.454 625.006 345.694C617.251 337.935 606.728 333.569 595.756 333.569L595.753 333.569ZM527.776 228.943C536.707 228.948 545.27 232.501 551.587 238.818C557.903 245.135 561.456 253.697 561.461 262.628V385.387H398.245V262.628V261.872V261.316C398.245 260.864 398.212 260.42 398.18 259.972C398.18 259.622 398.128 259.281 398.096 258.931C398.091 258.809 398.082 258.688 398.063 258.567C398.035 258.23 397.988 257.904 397.951 257.577C397.876 256.975 397.783 256.377 397.685 255.784L397.577 255.228C397.465 254.617 397.33 254.015 397.195 253.412C397.106 253.048 397.013 252.689 396.915 252.329C396.821 251.974 396.695 251.531 396.574 251.139C396.452 250.742 396.317 250.331 396.191 249.934C396.065 249.537 395.911 249.136 395.761 248.748C395.687 248.548 395.612 248.351 395.537 248.155C395.463 247.959 395.383 247.773 395.299 247.6C395.136 247.217 394.972 246.825 394.809 246.447C394.645 246.068 394.459 245.69 394.253 245.331C394.165 245.139 394.076 244.957 393.973 244.775L393.688 244.22C393.492 243.851 393.296 243.491 393.086 243.104C392.685 242.38 392.25 241.671 391.793 240.984C391.62 240.723 391.447 240.466 391.27 240.209C391.093 239.952 390.915 239.696 390.714 239.453L390.159 238.706C389.972 238.458 389.785 238.216 389.603 237.978C389.487 237.814 389.351 237.655 389.225 237.506L388.833 237.044L388.828 237.035C388.824 237.021 388.814 237.006 388.8 236.997C388.539 236.689 388.273 236.386 387.997 236.082L387.577 235.629L387.148 235.176C386.863 234.882 386.592 234.583 386.275 234.294C386.13 234.149 385.98 234.009 385.831 233.864C385.682 233.72 385.537 233.58 385.378 233.44C385.098 233.183 384.823 232.931 384.538 232.688L384.276 232.468C384.024 232.249 383.763 232.039 383.501 231.829C383.24 231.619 382.815 231.273 382.47 231.021C381.853 230.554 381.214 230.101 380.569 229.667C380.481 229.602 380.387 229.546 380.289 229.485C380.028 229.312 379.771 229.144 379.505 228.986L379.468 228.958L527.776 228.943ZM325.059 259.659C325.811 251.274 329.672 243.477 335.881 237.79C342.086 232.108 350.196 228.952 358.614 228.943C359.617 228.943 360.607 228.98 361.588 229.069L362.143 229.13H362.148C363.633 229.284 365.108 229.541 366.56 229.895C366.779 229.947 366.999 230.003 367.213 230.063C367.624 230.171 368.03 230.283 368.441 230.414L368.941 230.568C369.37 230.708 369.795 230.853 370.215 231.011L370.678 231.184V231.189C371.765 231.599 372.825 232.076 373.857 232.608L374.543 232.963C375.001 233.21 375.444 233.462 375.888 233.728C376.107 233.854 376.327 233.99 376.542 234.13C376.752 234.27 376.868 234.331 377.032 234.443C377.298 234.615 377.559 234.798 377.816 234.998C378.022 235.143 378.241 235.288 378.442 235.442C378.643 235.596 378.787 235.694 378.955 235.82C379.123 235.946 379.427 236.184 379.665 236.376C379.898 236.572 380.062 236.698 380.263 236.861C380.463 237.025 380.645 237.183 380.818 237.361C380.991 237.538 381.196 237.697 381.374 237.874L383.045 239.546L383.512 240.059C383.769 240.33 384.012 240.615 384.25 240.9C384.483 241.184 384.763 241.506 385.001 241.815C385.169 242.015 385.323 242.216 385.468 242.422C385.613 242.627 385.776 242.832 385.921 243.038C386.066 243.243 386.22 243.458 386.36 243.668C386.5 243.878 386.649 244.093 386.789 244.303C387.233 244.975 387.653 245.666 388.036 246.371C388.129 246.539 388.218 246.707 388.302 246.862C388.68 247.576 389.04 248.299 389.367 249.042C389.474 249.28 389.577 249.513 389.675 249.756V249.761C390.398 251.502 390.973 253.304 391.388 255.144C391.421 255.284 391.463 255.424 391.482 255.569C391.687 256.493 391.85 257.436 391.967 258.389C391.995 258.599 392.023 258.828 392.046 259.047C392.07 259.266 392.098 259.481 392.112 259.701L325.059 259.659ZM420.525 734.725H368.786V705.317H420.53L420.525 734.725ZM420.525 677.542L368.786 677.537V648.125H420.53L420.525 677.542ZM420.525 620.354L368.786 620.349V590.942H420.53L420.525 620.354ZM420.525 563.171L368.786 563.167V533.762H420.53L420.525 563.171ZM505.411 734.717H453.673V705.318H505.407L505.411 734.717ZM505.411 677.535H453.673V648.127H505.407L505.411 677.535ZM505.411 620.347H453.673V590.943H505.407L505.411 620.347ZM505.411 563.164L453.673 563.159V533.765H505.407L505.411 563.164ZM590.298 734.722H538.559V705.323H590.298V734.722ZM590.298 677.539H538.559V648.132H590.298V677.539ZM590.298 620.352H538.559V590.947H590.298V620.352ZM590.298 563.169L538.559 563.164V533.769H590.298V563.169ZM590.298 497.409L368.78 497.405V421.706H590.298V497.409Z" fill="white"/>
<path d="M423.465 267.538H538.563V279.415H423.465V267.538Z" fill="white"/>
<path d="M423.465 292.856H521.341V304.734H423.465V292.856Z" fill="white"/>
<path d="M423.465 317.435H538.563V329.312H423.465V317.435Z" fill="white"/>
<path d="M423.465 342.761H521.341V354.638H423.465V342.761Z" fill="white"/>
<path d="M511.984 0.000123708C229.407 -0.194436 0.279033 229.13 0 511.775C0.279033 794.839 229.407 1024.1 511.984 1024C794.666 1024.11 1023.78 794.839 1024 511.785C1023.78 229.13 794.666 -0.194436 511.984 0.000123708ZM563.068 790.467H468.414V695.327H563.068V790.467ZM596.149 532.818C571.563 548.762 562.396 567.214 562.645 586.691V658.524L468.879 658.944V551.69C468.951 519.905 479.462 498.207 510.042 478.556L562.645 443.075C596.377 420.28 596.19 374.323 575.273 353.761C556.754 336.077 525.709 325.765 492.411 332.227C431.912 344.535 427.034 388.926 427.179 430.94V449.362H333.445C333.589 370.401 342.374 334.602 384.136 289.587C430.6 238.828 496.214 230.687 556.712 242.883C617.283 255.539 689.326 314.051 689.429 399.053C689.326 484.434 620.745 516.803 596.149 532.818Z" fill="url(#paint0_linear_301_34)"/>
<path d="M511.984 0.000123708C229.407 -0.194436 0.279033 229.13 0 511.775C0.279033 794.839 229.407 1024.1 511.984 1024C794.666 1024.11 1023.78 794.839 1024 511.785C1023.78 229.13 794.666 -0.194436 511.984 0.000123708ZM563.068 790.467H468.414V695.327H563.068V790.467ZM596.149 532.818C571.563 548.762 562.396 567.214 562.645 586.691V658.524L468.879 658.944V551.69C468.951 519.905 479.462 498.207 510.042 478.556L562.645 443.075C596.377 420.28 596.19 374.323 575.273 353.761C556.754 336.077 525.709 325.765 492.411 332.227C431.912 344.535 427.034 388.926 427.179 430.94V449.362H333.445C333.589 370.401 342.374 334.602 384.136 289.587C430.6 238.828 496.214 230.687 556.712 242.883C617.283 255.539 689.326 314.051 689.429 399.053C689.326 484.434 620.745 516.803 596.149 532.818Z" fill="url(#paint1_linear_301_34)"/>
<path d="M511.984 0.000123708C229.407 -0.194436 0.279033 229.13 0 511.775C0.279033 794.839 229.407 1024.1 511.984 1024C794.666 1024.11 1023.78 794.839 1024 511.785C1023.78 229.13 794.666 -0.194436 511.984 0.000123708ZM563.068 790.467H468.414V695.327H563.068V790.467ZM596.149 532.818C571.563 548.762 562.396 567.214 562.645 586.691V658.524L468.879 658.944V551.69C468.951 519.905 479.462 498.207 510.042 478.556L562.645 443.075C596.377 420.28 596.19 374.323 575.273 353.761C556.754 336.077 525.709 325.765 492.411 332.227C431.912 344.535 427.034 388.926 427.179 430.94V449.362H333.445C333.589 370.401 342.374 334.602 384.136 289.587C430.6 238.828 496.214 230.687 556.712 242.883C617.283 255.539 689.326 314.051 689.429 399.053C689.326 484.434 620.745 516.803 596.149 532.818Z" fill="url(#paint2_linear_301_34)"/>
</g>
<defs>
<linearGradient id="paint0_linear_301_34" x1="512" y1="0" x2="512" y2="1024" gradientUnits="userSpaceOnUse">
<stop stop-color="#4E840E"/>
<stop offset="1" stop-color="#72BE18"/>
</linearGradient>
<linearGradient id="paint1_linear_301_34" x1="512" y1="0" x2="512" y2="1024" gradientUnits="userSpaceOnUse">
<stop stop-color="#4E840E"/>
<stop offset="1" stop-color="#72BE18"/>
</linearGradient>
<linearGradient id="paint2_linear_301_34" x1="512" y1="0" x2="512" y2="1024" gradientUnits="userSpaceOnUse">
<stop stop-color="#72BE18"/>
<stop offset="1" stop-color="#4E840E"/>
</linearGradient>
<clipPath id="clip0_301_34">
<rect width="1024" height="1024" fill="white"/>
</clipPath>
</defs>
</svg>
