<?xml version="1.0" encoding="UTF-8" standalone="no" ?>
<!DOCTYPE svg PUBLIC "-//W3C//DTD SVG 1.1//EN" "http://www.w3.org/Graphics/SVG/1.1/DTD/svg11.dtd">
<svg xmlns="http://www.w3.org/2000/svg" xmlns:xlink="http://www.w3.org/1999/xlink" version="1.1" width="1080" height="1080" viewBox="0 0 1080 1080" xml:space="preserve">
<desc>Created with Fabric.js 5.2.4</desc>
<defs>
</defs>
<g transform="matrix(1 0 0 1 540 540)" id="a98f0ac7-2542-4c61-93ae-c7d53d2a32b8"  >
</g>
<g transform="matrix(1 0 0 1 540 540)" id="5bb22592-acf0-477e-9a12-6285d48d9571"  >
<rect style="stroke: none; stroke-width: 1; stroke-dasharray: none; stroke-linecap: butt; stroke-dashoffset: 0; stroke-linejoin: miter; stroke-miterlimit: 4; fill: rgb(255,255,255); fill-rule: nonzero; opacity: 1;" vector-effect="non-scaling-stroke"  x="-540" y="-540" rx="0" ry="0" width="1080" height="1080" />
</g>
<g transform="matrix(1.93 0 0 1.94 582.1 510.44)"  >
<g style="" vector-effect="non-scaling-stroke"   >
		<g transform="matrix(0.13 0 0 -0.13 -37.76 -117.4)"  >
<path style="stroke: none; stroke-width: 1; stroke-dasharray: none; stroke-linecap: butt; stroke-dashoffset: 0; stroke-linejoin: miter; stroke-miterlimit: 4; fill: rgb(0,0,0); fill-rule: nonzero; opacity: 1;" vector-effect="non-scaling-stroke"  transform=" translate(-497.54, -2210.97)" d="M 409 2486 C 284 2442 211 2339 210 2209 C 210 2059 321 1936 470 1923 C 689 1903 849 2126 760 2328 C 703 2459 539 2533 409 2486 z" stroke-linecap="round" />
</g>
		<g transform="matrix(0.13 0 0 -0.13 0 48.01)"  >
<path style="stroke: none; stroke-width: 1; stroke-dasharray: none; stroke-linecap: butt; stroke-dashoffset: 0; stroke-linejoin: miter; stroke-miterlimit: 4; fill: rgb(0,0,0); fill-rule: nonzero; opacity: 1;" vector-effect="non-scaling-stroke"  transform=" translate(-780.76, -970.37)" d="M 210 1164 C 210 636 212 539 226 477 C 258 336 329 227 418 184 C 511 139 653 160 799 241 C 926 312 1274 677 1351 821 C 1356 832 1325 812 1282 776 C 1095 625 989 570 888 570 C 828 570 819 573 801 596 C 780 622 780 631 780 1201 L 780 1780 L 495 1780 L 210 1780 L 210 1164 z" stroke-linecap="round" />
</g>
</g>
</g>
</svg>