<svg width="56" height="56" viewBox="0 0 56 56" fill="none" xmlns="http://www.w3.org/2000/svg">
<circle cx="28" cy="28" r="28" fill="#37AA0F"/>
<path d="M22.9825 40.8069C22.6929 40.8068 22.4067 40.7444 22.1434 40.6239C21.8801 40.5034 21.6458 40.3276 21.4565 40.1084L15.4733 33.184C15.132 32.7782 14.9643 32.2543 15.0064 31.7257C15.0485 31.1971 15.2971 30.7064 15.6984 30.3597C16.0996 30.0131 16.6213 29.8384 17.1504 29.8735C17.6795 29.9087 18.1735 30.1507 18.5254 30.5474L22.879 35.5894L37.1056 16.7995C37.2655 16.5883 37.4654 16.4107 37.6939 16.2768C37.9224 16.1429 38.1751 16.0553 38.4375 16.019C38.6998 15.9827 38.9668 15.9985 39.2231 16.0654C39.4793 16.1323 39.7199 16.249 39.9311 16.4089C40.1423 16.5688 40.3199 16.7687 40.4538 16.9972C40.5877 17.2257 40.6753 17.4784 40.7116 17.7408C40.7479 18.0032 40.7321 18.2701 40.6652 18.5264C40.5983 18.7827 40.4816 19.0233 40.3217 19.2344L24.5906 40.0076C24.4091 40.2471 24.1764 40.4431 23.9095 40.5812C23.6426 40.7192 23.3481 40.7959 23.0478 40.8055C23.0256 40.8069 23.0041 40.8069 22.9825 40.8069Z" fill="white"/>
</svg>
