<?xml version="1.0" encoding="UTF-8"?>
<!DOCTYPE svg PUBLIC "-//W3C//DTD SVG 1.1//EN" "http://www.w3.org/Graphics/SVG/1.1/DTD/svg11.dtd">
<svg xmlns="http://www.w3.org/2000/svg" version="1.1" width="547px" height="582px" style="shape-rendering:geometricPrecision; text-rendering:geometricPrecision; image-rendering:optimizeQuality; fill-rule:evenodd; clip-rule:evenodd" xmlns:xlink="http://www.w3.org/1999/xlink">
<g><path style="opacity:1" fill="#fc654e" d="M 256.5,103.5 C 326.331,102.654 379.498,131.654 416,190.5C 438.804,232.799 443.804,277.133 431,323.5C 406.459,394.364 356.959,434.864 282.5,445C 221.813,448.895 171.979,427.728 133,381.5C 91.1247,323.959 84.7914,262.626 114,197.5C 144.954,141.262 192.454,109.928 256.5,103.5 Z M 249.5,120.5 C 314.488,116.411 364.655,141.411 400,195.5C 427.519,245.981 428.519,296.981 403,348.5C 370.25,403.301 321.75,430.135 257.5,429C 203.202,423.982 161.702,398.482 133,352.5C 106.817,302.998 105.817,252.998 130,202.5C 156.386,155.712 196.22,128.379 249.5,120.5 Z"/></g>
<g><path style="opacity:1" fill="#fb644e" d="M 202.5,199.5 C 205.688,199.618 208.688,200.451 211.5,202C 230,220.5 248.5,239 267,257.5C 285.5,239 304,220.5 322.5,202C 329.234,198.35 335.068,199.516 340,205.5C 342,209.833 342,214.167 340,218.5C 321.319,237.014 302.819,255.681 284.5,274.5C 302.486,292.986 320.653,311.319 339,329.5C 344.163,340.508 340.829,347.175 329,349.5C 325.767,349.3 322.933,348.133 320.5,346C 302.653,327.986 284.653,310.153 266.5,292.5C 247.681,310.819 229.014,329.319 210.5,348C 195.805,350.97 190.305,345.137 194,330.5C 212.5,312 231,293.5 249.5,275C 231.333,256.833 213.167,238.667 195,220.5C 189.765,210.558 192.265,203.558 202.5,199.5 Z"/></g>
</svg>
