<svg width="1200" height="800" viewBox="0 0 1200 800" fill="none" xmlns="http://www.w3.org/2000/svg">
<rect width="1200" height="800" fill="white"/>
<path d="M817.449 322C774.511 322 739.576 357.216 739.576 400.5C739.576 443.784 774.511 479 817.449 479C860.389 479 895.32 443.784 895.32 400.5C895.32 357.216 860.391 322 817.449 322ZM791.313 370.825C797.131 370.825 801.849 375.578 801.849 381.443C801.849 387.31 797.131 392.062 791.313 392.062C785.497 392.062 780.778 387.31 780.778 381.443C780.778 375.576 785.497 370.825 791.313 370.825ZM849.636 432.101C849.149 432.493 837.503 441.766 815.987 441.766C796.267 441.766 784.97 432.28 784.499 431.875C781.942 429.682 781.629 425.816 783.803 423.237C785.978 420.66 789.813 420.347 792.371 422.537C792.679 422.792 800.963 429.511 815.987 429.511C832.94 429.511 841.682 422.811 842.044 422.53C844.676 420.464 848.489 420.906 850.562 423.543C852.631 426.175 852.231 429.986 849.636 432.101ZM846.017 392.06C840.201 392.06 835.485 387.308 835.485 381.441C835.485 375.576 840.201 370.823 846.017 370.823C851.835 370.823 856.553 375.576 856.553 381.441C856.553 387.308 851.835 392.06 846.017 392.06Z" fill="#37AA0F"/>
<path d="M600.787 322C557.504 322 522.288 357.217 522.288 400.499C522.288 443.783 557.504 479 600.787 479C644.072 479 679.288 443.783 679.288 400.499C679.288 357.215 644.072 322 600.787 322ZM574.441 370.825C580.306 370.825 585.063 375.578 585.063 381.443C585.063 387.31 580.306 392.063 574.441 392.063C568.578 392.063 563.821 387.31 563.821 381.443C563.821 375.578 568.578 370.825 574.441 370.825ZM631.848 437.536H572.107C568.723 437.536 565.98 434.673 565.98 431.287C565.98 427.906 568.723 425.04 572.107 425.04H631.846C635.229 425.04 637.972 427.906 637.972 431.287C637.974 434.673 635.229 437.536 631.848 437.536ZM629.584 392.061C623.725 392.061 618.966 387.308 618.966 381.441C618.966 375.576 623.723 370.823 629.584 370.823C635.449 370.823 640.208 375.576 640.208 381.441C640.208 387.31 635.451 392.061 629.584 392.061Z" fill="#FEC830"/>
<path d="M383.5 322C340.214 322 305 357.215 305 400.498C305 443.786 340.214 479 383.5 479C426.785 479 462 443.786 462 400.498C462 357.215 426.785 322 383.5 322ZM357.154 370.824C363.021 370.824 367.773 375.577 367.773 381.442C367.773 387.307 363.021 392.059 357.154 392.059C351.292 392.059 346.536 387.307 346.536 381.442C346.536 375.577 351.292 370.824 357.154 370.824ZM416.765 438.982C415.551 440.407 413.829 441.141 412.094 441.141C410.694 441.141 409.281 440.661 408.128 439.681C407.821 439.424 399.469 432.71 384.321 432.71C367.232 432.71 358.42 439.407 358.057 439.689C355.403 441.754 351.559 441.312 349.469 438.674C347.382 436.039 347.785 432.233 350.403 430.121C350.888 429.727 362.63 420.456 384.321 420.456C404.202 420.456 415.591 429.94 416.064 430.348C418.643 432.534 418.955 436.405 416.765 438.982ZM412.296 392.059C406.437 392.059 401.68 387.307 401.68 381.442C401.68 375.577 406.437 370.824 412.296 370.824C418.161 370.824 422.918 375.577 422.918 381.442C422.918 387.307 418.161 392.059 412.296 392.059Z" fill="#FC644D"/>
</svg>
